<?xml version="1.0" encoding="UTF-8"?> <svg xmlns="http://www.w3.org/2000/svg" width="102" height="40" viewBox="0 0 102 40"> <g fill="#FFF" fill-rule="evenodd"> <path d="M65.899 26.917l-1.963-1.989c-1.49 1.392-2.857 2.263-4.993 2.263-3.329 0-5.738-2.785-5.738-6.216 0-3.43 2.41-6.166 5.738-6.166 1.987 0 3.478.87 4.87 2.163l1.962-2.262C64.11 13.119 62.173 12 58.968 12 53.7 12 50 16.052 50 21.025 50 26.047 53.776 30 58.844 30c3.254 0 5.241-1.193 7.055-3.083zm4.387 2.785h12.198v-2.785h-9.142V12.298h-3.056v17.404zm28.708-5.37l-9.316-12.034h-2.832v17.404h3.006V17.32l9.59 12.382H102V12.298h-3.006v12.033zM40 20.002a19.996 19.996 0 0 0-10.387-17.54L14.445 17.648c-2.712 2.712-2.631 5.333-.094 7.873a5.374 5.374 0 0 0 2.19 1.324l-4.084 4.084c-1.524-.508-3.056-1.46-3.989-2.394-4.403-4.409-4.14-9.478 1.548-15.166L23.138.247A20.106 20.106 0 0 0 20.003 0C8.957 0 0 8.955 0 20.002a19.999 19.999 0 0 0 10.38 17.546l15.168-15.186c2.713-2.713 2.632-5.334.095-7.873a5.37 5.37 0 0 0-2.19-1.329l4.084-4.084c1.524.507 3.055 1.46 3.988 2.394 4.404 4.403 4.142 9.47-1.547 15.159L16.856 39.753c1.037.163 2.085.246 3.135.247 11.046 0 20.003-8.956 20.003-20.002"></path> </g> </svg> 