<svg version="1.1" id="Calque_1" xmlns="http://www.w3.org/2000/svg" x="0" y="0" viewBox="-205 328.9 184 185" xml:space="preserve"><style type="text/css">.st0{fill:#fff}</style><title>Logo large bold</title><path class="st0" d="M-23.8 400.3c-5.7-23.9-20.3-44.2-41.2-57.1-20.9-12.9-45.5-16.9-69.4-11.2-23.9 5.7-44.1 20.3-57 41.2-12.9 20.9-16.9 45.6-11.2 69.6 10 42.3 47.8 70.8 89.4 70.8 7 0 14.1-.8 21.2-2.5 49.3-11.7 79.9-61.4 68.2-110.8zm-68.7 108.3c-6.9 1.6-13.8 2.4-20.6 2.4-40.4 0-77.1-27.7-86.8-68.8-5.5-23.3-1.6-47.3 10.9-67.6 12.5-20.3 32.2-34.6 55.4-40.1 6.9-1.6 13.8-2.4 20.8-2.4 16.3 0 32.4 4.5 46.7 13.4 20.3 12.5 34.5 32.3 40 55.5 11.2 47.9-18.6 96.2-66.4 107.6z"/><path class="st0" d="M-188.2 423.8c.1.2.1.4.1.8h.3l.1-7.7-3-.6v.4c1 .4 1.7.9 2 1.4.3.5.5 1.2.5 2 0 .4-.1.7-.2.9-.1.2-.3.2-.6.2l-6.2-.1c-.5 0-.8-.1-1-.3-.1-.2-.2-.5-.2-1.1h-.3l-.1 4.6h.3c0-.4.1-.6.2-.8.1-.2.4-.4.8-.4l6.4.1c.5.2.7.3.9.6zM-195.7 411.9c.2-.2.4-.3.8-.3l6.3 1c.4.1.6.2.7.5.1.2.1.4 0 .8l.3.1 1.2-7.6-2.6-1-.1.4c.8.6 1.4 1.1 1.6 1.7.2.6.3 1.3.2 2.1-.1.4-.2.7-.3.9-.1.1-.3.2-.6.1l-3.2-.5c.1-.7.4-1.2.7-1.5.3-.2.9-.3 1.7-.3l.1-.3-4.4-.7-.1.3c.7.3 1.2.5 1.4.8.2.3.3.8.2 1.6l-3-.5c-.2 0-.4-.1-.5-.2-.1-.1-.1-.4 0-.8.2-1.1.4-1.8.8-2.1.4-.3 1-.5 1.9-.6v-.3l-2.6-.4-1.2 7.5.3.1c.3-.5.3-.7.4-.8zM-191.9 394.9c.2-.1.4-.1.8 0l5.8 2.4c.3.1.5.3.6.5.1.2.1.5-.1 1l.3.1 1.2-2.9-.3-.1c-.2.5-.5.8-.7.9-.3.1-.6 0-1-.1l-5.5-2.3v-.1l8.3-.2.1-.3-6-5.9v-.1l6 2.4c.4.2.6.3.6.6 0 .2 0 .5-.2.9l.3.1 1.7-4.1-.3-.1c-.2.4-.4.7-.6.8-.2.1-.5.1-1-.1l-5.4-2.2c-.5-.2-.7-.4-.8-.6-.1-.2 0-.5.1-.9l-.3-.1-1.3 3.1 4.7 4.7v.1l-6.6.1-1.3 3.1.3.1c.3-.4.5-.7.6-.8zM-182.4 383.3c1.1.7 2.2.9 3.4.7 1.3-.3 2.3-1 3-2.2.7-1.1.9-2.3.7-3.5-.3-1.2-1-2.2-2.2-3-1.2-.7-2.4-1-3.6-.7-1.2.3-2.2 1-2.9 2.1-.7 1.2-1 2.4-.7 3.6.4 1.3 1.1 2.3 2.3 3zm-1.2-6.2c.4-.6 1-.9 1.8-.9s1.8.4 3 1.2c.9.5 1.5 1.1 1.9 1.6.8.9.9 1.8.4 2.7-.5.8-1.4 1.1-2.6.8-.6-.2-1.4-.5-2.3-1.1-.9-.5-1.5-1.1-1.9-1.6-.7-1-.8-1.9-.3-2.7zM-177.9 369.6c.2 0 .5.1.8.5l3.3 2.9c.6.5 1.1.8 1.7.9 1.1.2 2.1-.3 3.1-1.5.8-.9 1.1-1.7 1-2.5-.1-.8-.6-1.6-1.4-2.3l-3.2-2.8c-.3-.3-.5-.5-.5-.7 0-.2.1-.5.3-.8l-.3-.2-1.9 2.2.3.2c.4-.4.7-.5.9-.6.2 0 .6.1.9.4l3 2.7c.6.5.9.9 1.1 1.4.3.8.2 1.5-.5 2.3-.5.6-1.2.8-1.9.6-.4-.1-.8-.4-1.3-.8l-3.3-2.9c-.4-.3-.6-.6-.6-.8 0-.2.2-.5.5-.9l-.3-.2-2.9 3.4.3.2c.4-.5.7-.7.9-.7zM-169.6 360.5c.2 0 .5.1.8.3l7.7 3.9.3-.2-2.7-7.9c-.1-.4-.2-.7-.2-.9 0-.2.1-.4.4-.7l-.2-.2-2.1 1.8.2.2c.4-.3.6-.4.8-.5.2 0 .3 0 .5.2.1.1.1.2.2.4 0 .1.1.2.1.3l1.6 4.5-4.7-2.4c-.1 0-.1-.1-.2-.1l-.1-.1c-.1-.2-.2-.3-.1-.4.1-.1.3-.4.6-.7l-.2-.2-3.4 2.9.2.2c.1-.3.3-.4.5-.4zM-159.7 352.5c.3 0 .5.1.7.5l3.4 5.5c.2.3.2.6.1.9-.1.2-.3.3-.6.6l.2.3 6.6-4.1-1-2.6-.3.2c.1 1 0 1.8-.2 2.3-.3.6-.8 1.1-1.5 1.5-.4.2-.7.3-.8.3-.2 0-.3-.1-.5-.4l-1.7-2.7c.6-.4 1.2-.5 1.6-.4s.8.5 1.3 1.1l.3-.2-2.3-3.8-.3.2c.3.7.4 1.3.3 1.6-.1.4-.4.8-1.1 1.2l-1.6-2.6c-.1-.2-.2-.4-.1-.5 0-.1.2-.3.6-.5.9-.6 1.6-.8 2.1-.8.5.1 1.1.4 1.6 1l.3-.2-1.4-2.3-6.5 4 .2.3c.2-.3.5-.4.6-.4zM-149.2 346.5c.2 0 .4.2.5.6l2.4 5.8c.1.3.2.6.1.8-.1.2-.3.4-.8.6l.1.3 2.9-1.2-.1-.3c-.5.2-.9.2-1.1.1-.2-.1-.4-.4-.6-.8l-2.3-5.5h.1l5.9 5.8.3-.1.1-8.4h.1l2.4 6c.2.4.2.6 0 .8-.1.2-.4.4-.7.5l.1.3 4.1-1.7-.1-.3c-.4.2-.7.2-.9.1-.2-.1-.4-.3-.6-.8l-2.2-5.4c-.2-.5-.2-.8-.1-1 .1-.2.4-.4.8-.6l-.1-.3-3.1 1.3-.1 6.7h-.1l-4.7-4.7-3.1 1.3.1.3c.2-.2.5-.3.7-.2zM-134.7 341.1c.3.1.5.3.5.7l1.4 6.3c.1.4 0 .6-.2.8-.1.1-.4.2-.8.3l.1.3 7.5-1.7-.1-2.8-.4.1c-.2 1-.5 1.7-1 2.1-.5.4-1.1.7-1.9.9-.4.1-.7.1-.9 0-.2-.1-.3-.2-.3-.5l-.7-3.1c.7-.2 1.3-.1 1.6.1.4.2.7.7.9 1.4l.3-.1-1-4.4-.3.1c0 .8-.1 1.3-.3 1.6-.2.3-.7.6-1.4.7l-.7-3c-.1-.2 0-.4.1-.5.1-.1.3-.2.7-.3 1-.2 1.8-.2 2.2 0 .5.2.9.7 1.2 1.5l.3-.1-.6-2.6-7.4 1.6.1.3c.7.2.9.2 1.1.3zM-123.5 338.9c.1.1.4.3.8.7l.5 6.2c0 .3 0 .6-.2.8-.1.2-.4.3-.9.4v.3l3-.2v-.3c-.5 0-.9-.1-1.1-.4-.1-.2-.2-.4-.2-.8l-.4-5.2h.1l6.3 6.6h.4l-.6-7.8c0-.4 0-.7.1-.8.1-.1.4-.2.8-.3v-.3l-2.8.2v.3c.5 0 .8.1 1 .3.2.2.3.5.3.9l.3 3.9h-.1l-4.9-5.2-2.8.2v.3c.2 0 .3.1.4.2zM-109.8 338.6c.4-.2.9-.2 1.5-.2l-.5 7c0 .5-.1.8-.3.9-.2.1-.5.2-1 .2v.3l4.7.3v-.3c-.5 0-.9-.1-1-.3-.2-.2-.2-.5-.2-1l.5-7c.7.1 1.1.2 1.5.4.6.4.9 1 .9 2h.4l.2-2.7-7.9-.6-.2 2.7h.4c-.1-.8.3-1.4 1-1.7zM-89.4 349.1c1-.6 1.6-1.5 2-2.6.4-1.3.3-2.4-.3-3.4-.6-1.1-1.7-1.8-3.2-2.3l-3.9-1.1-.1.3c.3.1.5.2.7.4.2.2.3.5.2.8l-1.8 6.3c-.1.3-.3.5-.6.6-.2 0-.4 0-.7-.1l-.1.3 4 1.1c1.4.5 2.7.4 3.8-.3zm-4.4-.5c-.1-.1 0-.3 0-.6l1.8-6.3c.1-.3.2-.4.2-.5.1-.1.4-.1.7 0 1 .3 1.6 1 1.7 2.2.1.7 0 1.5-.3 2.4-.4 1.5-1 2.5-1.6 2.9-.6.4-1.3.5-2.1.3-.2-.1-.4-.2-.4-.4zM-82.3 353.8c1.1.5 2 .6 2.7.2.7-.3 1.4-1 1.8-2l1.8-3.9c.2-.4.4-.6.5-.7.2-.1.5 0 .9.1l.1-.3-2.6-1.2-.1.3c.4.2.7.5.8.7.1.2 0 .6-.2 1l-1.7 3.7c-.3.7-.6 1.2-1 1.5-.6.5-1.4.6-2.3.2-.7-.3-1.1-.9-1.1-1.6 0-.4.1-.9.4-1.5l1.8-4c.2-.5.4-.7.6-.8.2-.1.6 0 1 .2l.1-.3-4.1-1.9-.1.3c.4.2.6.4.7.6.1.2 0 .5-.2.9l-1.8 4c-.3.7-.4 1.3-.4 1.9.3 1.1 1.1 1.9 2.4 2.6zM-67.2 362.2c-.4-.3-.6-.5-.6-.8-.1-.2.1-.5.4-.9l1.4-2 4.5-1.8c.2-.1.4-.1.5-.1.1 0 .3.1.5.2l.2-.3-2.3-1.7-.2.3.6.6c.1.2.1.4 0 .5-.1.1-.3.3-.6.4-.2.1-.4.2-.5.3l-2.5 1 .5-3.6c0-.2.1-.3.1-.4 0-.1.1-.1.1-.2.1-.1.2-.1.3-.1.1 0 .4.2.8.4l.2-.3-3.6-2.6-.2.3c.1.1.2.2.3.4.1.2.2.5.1.8l-.6 5-1.1 1.6c-.3.4-.5.6-.8.6-.2 0-.5-.1-.9-.4l-.2.3 3.7 2.7-.1-.2zM-62 365.4c0 1.3.4 2.4 1.4 3.4.9.9 2 1.4 3.3 1.4 1.3 0 2.4-.5 3.4-1.5s1.5-2.1 1.4-3.4c0-1.2-.5-2.3-1.4-3.3-1-1-2.1-1.5-3.4-1.4-1.2 0-2.4.5-3.3 1.5-.9 1-1.4 2.1-1.4 3.3zm3.1-1.5c.7-.7 1.4-1.2 1.9-1.5 1.1-.6 2-.5 2.7.2.5.5.7 1.2.5 2-.2.8-.8 1.7-1.8 2.7-.7.7-1.4 1.2-2 1.6-1.1.6-2 .5-2.7-.2-.7-.7-.8-1.6-.2-2.7.3-.8.9-1.4 1.6-2.1zM-53.9 375.5l-.3.2 2.7 3.7.3-.2c-.3-.4-.4-.7-.4-.9 0-.2.2-.5.6-.8l2-1.4 4.8-.4c.2 0 .4 0 .5.1.1.1.3.2.4.3l.3-.2-1.7-2.4-.3.2c.2.4.4.6.4.7 0 .2 0 .4-.2.5-.1.1-.4.2-.7.2-.2 0-.4.1-.6.1l-2.7.2 1.5-3.3c.1-.2.2-.3.2-.4 0-.1.1-.1.1-.1.1-.1.2-.1.3 0 .1.1.3.3.6.7l.3-.2-2.6-3.6-.3.2c.1.1.2.3.2.4 0 .3 0 .5-.1.8l-2.1 4.5-1.6 1.1c-.4.3-.7.4-.9.4-.1.2-.4 0-.7-.4zM-47.3 383.9c-.4 1.2-.3 2.5.3 3.7.6 1.2 1.5 2 2.7 2.4 1.2.4 2.4.3 3.6-.3 1.2-.6 2-1.6 2.4-2.8.4-1.2.2-2.4-.4-3.6-.6-1.2-1.5-2-2.7-2.4-1.2-.4-2.4-.2-3.6.4-1.1.6-1.8 1.5-2.3 2.6zm5.8-1.4c1.2-.2 2.1.1 2.5 1 .3.6.3 1.3-.2 2-.4.7-1.3 1.4-2.5 2-.9.5-1.7.8-2.4.9-1.2.2-2-.1-2.5-1s-.2-1.8.6-2.6c.5-.5 1.2-.9 2.1-1.4 1-.5 1.7-.8 2.4-.9z"/><circle class="st0" cx="-190.1" cy="434.8" r="2.2"/><circle class="st0" cx="-36.9" cy="398.3" r="2.2"/><path class="st0" d="M-95.1 414.5c4.2-1 6.5-4.2 6.9-9.6.2-2.9-.2-6.6-1.2-10.9-1.4-6-3.4-10.3-5.9-12.9-2.5-2.6-5.3-3.6-8.3-2.8-4.2 1-6.6 4.2-6.9 9.7-.2 2.9.2 6.5 1.2 10.8 1 4.4 2.3 7.8 3.8 10.3 2.7 4.6 6.2 6.5 10.4 5.4zM-187.3 451.5h-.3c-.8 0-1.1 0-1.3-.1-.4-.2-.7-.6-1-1.3l-1-2.8 9.7 2.8.6-.2-2.8-7.8-3.2.7.4 1.1h.3c.7-.1 1 0 1.2 0 .4.1.7.6.9 1.2l.8 2.4-9.7-2.8-.6.2 2.9 8.3 3.3-.7-.2-1zM-184.6 459.3l.4-.1-.1-1h-.3c-.5 0-.9-.2-1.2-.3-.3-.2-.5-.4-.7-.8-.2-.4-.2-.9 0-1.4.2-.4.6-.9 1.3-1.3l1.9 4 .4-.2c.8-.4 1.4-1 1.6-1.7.2-.7.2-1.5-.2-2.1 0-.1-.1-.2-.1-.2l2.2 1.4c.2.1.3.2.5.2h.2c.1 0 .3 0 .4-.1.2-.1.4-.3.4-.5.1-.2 0-.4-.1-.6-.1-.2-.2-.3-.4-.4-.1-.1-.3-.1-.4-.2l-3.7-1.3.5 1.1c-.4-.5-1-.9-1.7-1-.9-.2-1.9-.1-2.8.3-.8.4-1.5 1-1.9 1.8-.5.8-.5 1.7 0 2.6.4.8 1 1.3 1.7 1.6.6.2 1.1.3 1.6.3.2-.1.3-.1.5-.1zm.8-5.3c.4 0 .7.2.8.6.2.4.2.6 0 .9l-.3.3-.9-1.8h.4zM-183.9 463.1c0-.1.2-.3.4-.4l2.7-1.6c.2-.1.4-.1.6-.1.2 0 .3.1.4.1v.2c-.1.3 0 .6.1.9.1.2.4.4.7.5.3.1.5 0 .8-.1.3-.2.5-.4.5-.7.1-.3 0-.6-.2-.9-.2-.3-.5-.6-.9-.7-.1 0-.2-.1-.3-.1h.1c.1-.1.2-.1.2-.2.1-.1.2-.4.1-.5v-.1h-.1c-.2-.2-.4-.3-.6-.5-.1-.1-.2-.2-.5-.4l-.9-.7-.9.5.3.4c.1.1.1.1.1.2l.1.1v.1c-.1.1-.2.2-.7.5l-2.7 1.6c-.3.2-.4.2-.4.2s-.1-.1-.4-.5l-.2-.3-.9.5 2.1 3.7.9-.5-.2-.3c-.2-.6-.2-.8-.2-.9zM-177.7 463.5c-1-.1-1.9.1-2.7.7-.9.6-1.4 1.4-1.6 2.4-.2 1 0 1.9.6 2.7.6.9 1.4 1.3 2.4 1.4h.4c.8 0 1.6-.3 2.3-.8.9-.6 1.4-1.4 1.6-2.4.2-.9-.1-1.9-.6-2.7-.7-.7-1.5-1.1-2.4-1.3zm1.2 3.5c-.3.6-.8 1.2-1.4 1.6-.6.4-1.1.6-1.6.7-.4 0-.7-.1-.9-.4-.3-.4-.3-.9 0-1.5.3-.7.8-1.2 1.4-1.6.6-.4 1.2-.7 1.6-.7h.3c.3.1.5.2.6.4.3.5.3.9 0 1.5zM-169.7 480.4c-.1 0-.1-.1 0 0-.2-.2-.2-.3-.3-.3l.3-.3 4.1-3.9.6-.6 1.1-1.1.2-.2-.2-.4-.1-.1c-.2-.1-.3-.1-.3-.2-.1-.1-.3-.2-.5-.3-.2-.1-.4-.2-.5-.3l-.8-.5-.7.7.4.4.1.1.1.1.1.1s-.1.1-.2.3l-1 1c-.1-.3-.3-.7-.6-.9-.7-.7-1.5-1-2.6-.9-1 .1-1.9.5-2.7 1.3-.6.6-1 1.4-1.1 2.2-.1.9.1 1.7.8 2.3.4.4.8.6 1.2.7h.1l-.1.1-.1.5 1.3.6.3.1c.4.2.6.3.7.3l.3.1.7-.7-.6-.2zm-1.4-1.9s-.1.1-.4.1c-.2 0-.4-.1-.6-.3-.4-.4-.5-.8-.3-1.3.2-.6.5-1.1 1-1.6s1-.8 1.5-.9c.5-.1.8 0 1.1.3.2.2.2.4.3.7 0 .3-.1.6-.5.9l-2.1 2.1zM-163.8 483.9c-.5.2-.9.2-1.3.2-.3 0-.6-.2-.9-.4-.4-.3-.6-.7-.6-1.3 0-.5.2-1 .6-1.7l3.3 2.9.3-.3c.6-.7.9-1.5.8-2.2-.1-.8-.4-1.4-1-1.9l-.2-.2 2.5.4h.5c.2 0 .4-.1.5-.3.2-.2.2-.4.2-.7 0-.2-.1-.4-.3-.6-.2-.1-.3-.2-.6-.2h-.4l-3.9.3.9.8c-.6-.3-1.3-.4-2-.3-.9.2-1.8.7-2.4 1.4-.6.7-1 1.5-1 2.4-.1.9.3 1.7 1 2.4.6.5 1.3.8 2 .8h.2c.8 0 1.5-.2 2.1-.6l.3-.2-.5-.8-.1.1zm-.9-4.3c.4-.1.7-.1 1 .2.3.3.4.5.3.8 0 .1-.1.2-.2.4l-1.5-1.3c.2 0 .3 0 .4-.1zM-157.3 488.9l-.4-.9-.4.1c-.4.2-.7.2-1 .3-.4 0-.7-.1-1.1-.3-.4-.3-.7-.7-.7-1.3 0-.6.2-1.2.5-1.7.4-.5.8-.9 1.3-1 .4-.1.8-.1 1.2.2l.3.3v.3l-.1.3c-.1.3-.1.5-.1.8.1.3.2.5.4.6.4.3.7.2.9.2.3-.1.5-.2.6-.4.3-.4.3-.9.1-1.5-.2-.6-.6-1-1.1-1.4-.8-.6-1.8-.8-2.8-.6-1 .2-1.8.8-2.4 1.6-.6.9-.9 1.8-.7 2.7.1.9.6 1.6 1.2 2.1.5.4 1 .5 1.7.5.3 0 .5 0 .8-.1.5-.1 1-.3 1.6-.6l.2-.2zM-150 490.9c.3-.5.5-1 .5-1.4.1-.8-.3-1.5-1.1-2-.5-.3-1-.4-1.6-.4h-.2l1.7-2.9.1-.5-1.1-.2c-.1 0-.3-.1-.6-.2s-.6-.1-.8-.2l-.3-.1-.5.9.6.2h.1c.1 0 .1.1.1.1 0 .1 0 .2-.1.3l-3.3 5.8c-.3.5-.4.6-.4.6s-.1 0-.5-.1l-.3-.1-.5.8 6.6 3.8.5-.8-.3-.2c-.3-.2-.3-.3-.3-.3s0-.2.3-.7l1.4-2.4zm-1.7-1l-1.4 2.4c-.3.5-.4.6-.4.6s-.1 0-.5-.1l-.3-.1-.2-.2-.4-.4s0-.2.3-.7l1.7-2.9c.1 0 .2 0 .5-.1.3 0 .6 0 .9.1.3.2.3.4.3.4-.3.4-.4.7-.5 1zM-144.7 490.5c-.9-.4-1.8-.4-2.7 0-.9.4-1.5 1.1-1.9 2-.4.9-.5 1.7-.3 2.6.2.9.7 1.6 1.6 2 .4.2.9.3 1.3.3.3 0 .7-.1 1-.2.7-.3 1.4-.6 1.8-1.2l.3-.3-.7-.7-.3.2c-.4.3-.8.5-1.2.5-.3.1-.7 0-1-.1-.4-.2-.7-.6-.9-1.1-.1-.5-.1-1.1.2-1.8l4 1.8.2-.4c.4-.9.4-1.7.1-2.4-.3-.3-.8-.9-1.5-1.2zm-.4 2.2l-1.8-.8.3-.3c.3-.2.7-.3 1-.1.4.2.5.4.6.7-.1.1-.1.3-.1.5zM-138.5 491.8c0-.1.1-.3 0-.4-.1-.1-.2-.2-.3-.2l-.2-.1-.2.1c-.7.5-1.2.8-1.4.9-.2.1-.4.2-.8.3-.2.1-.3.1-.3.1-.1 0-.2.1-.2.3-.1.1 0 .3 0 .3 0 .1.1.1.1.2l.1.1.4.2-1.3 3.6c-.2.5-.3.9-.3 1.2 0 .7.4 1.2 1 1.4.2.1.5.1.7.1h.3c.4 0 .7-.2 1.1-.4l.5-.3-.5-.9-.3.2-.4.2h-.2c-.1 0-.2-.1-.2-.3 0-.1 0-.3.2-.7l1.3-3.4 1.3.5.4-1.2-1.3-.5.5-1.3zm-.6-.3l-.2-.1.2.1zM-128.1 499.4l.1-.4c.2-.9.1-1.7-.3-2.4-.4-.6-1-1-1.8-1.2-1-.2-1.9 0-2.7.6-.8.6-1.3 1.4-1.5 2.4-.2.9-.1 1.8.2 2.6.4.9 1 1.4 2 1.7.3.1.5.1.8.1.5 0 1.1-.1 1.6-.4.7-.4 1.2-.9 1.5-1.5l.2-.3-.8-.5-.2.2c-.3.4-.7.6-1 .8-.3.1-.6.2-1 .1-.5-.1-.8-.4-1.1-.9-.2-.4-.3-1-.2-1.8l4.2.9zm-3.7-2.4c.3-.3.6-.4 1-.3.5.1.6.4.7.6v.5l-1.9-.4c0-.2.1-.3.2-.4zM-123.9 495.4c0-.1 0-.3-.1-.5-.1-.1-.2-.1-.3-.1h-.2l-.1.1c-.6.6-1 1-1.2 1.1-.1.1-.4.3-.7.5-.2.1-.2.2-.3.2-.1.1-.1.2-.2.3 0 .1 0 .2.1.3l.1.1.1.1.5.1-.6 3.8c-.1.5-.1.9 0 1.3.2.7.6 1.1 1.3 1.2h.3c.2 0 .5 0 .7-.1.3-.1.7-.3 1-.7l.4-.4-.6-.7-.3.2c-.2.2-.3.2-.4.3h-.2c-.1 0-.2-.1-.2-.2v-.7l.6-3.6 1.4.2.2-1.3-1.4-.2.1-1.3zm-.6-.1h-.2.2zM-114.9 503c-.2.2-.3.3-.4.3-.1 0-.1.1-.2 0-.1 0-.2 0-.3-.2 0-.1-.1-.3 0-.7l.2-3.6 1.4.1.1-1.3-1.4-.1v-1.3c0-.1 0-.3-.2-.4-.1-.1-.2-.1-.3-.1h-.2l-.1.2c-.5.7-.9 1.1-1 1.2-.1.1-.4.3-.7.6-.2.1-.2.2-.3.2-.1.1-.1.2-.1.4 0 .1 0 .2.1.3l.1.1.1.1h.5l-.1 3.8c0 .5 0 .9.1 1.3.2.7.7 1 1.4 1h.1c.3 0 .6-.1.9-.2.3-.1.6-.4.9-.8l.4-.5-.7-.7-.3.3zM-110.2 497.3c-1 0-1.9.4-2.5 1.2-.6.7-.9 1.6-.9 2.7s.4 2 1.1 2.7c.7.7 1.5 1 2.4 1h.2c1 0 1.9-.5 2.5-1.3.6-.8.9-1.7.9-2.7 0-1.1-.4-2-1.1-2.6-.7-.7-1.6-1-2.6-1zm1.4 5.8c-.2.4-.5.5-.8.6-.5 0-.9-.2-1.2-.8-.4-.6-.6-1.3-.6-2.1 0-.9.1-1.6.5-1.9.2-.2.4-.3.7-.3h.1c.5 0 .9.3 1.2.8.4.6.5 1.3.6 2.1-.2.6-.3 1.2-.5 1.6zM-98.5 501.9c-.3.1-.4 0-.4 0s-.1-.1-.1-.4l-.7-5.3-3 .4.1 1h1s.1.1.1.4l.5 3.6c-.1.1-.2.3-.3.4-.2.2-.4.3-.7.3-.4.1-.5-.1-.6-.2-.1-.1-.1-.3-.2-.6l-.7-4.8-2.8.4.1.9h.9s.1.1.1.4l.5 3.6c.1.8.4 1.3.9 1.6.4.2.8.3 1.2.3h.3c.5-.1 1-.3 1.4-.7l.2-.2V503.3l.2.3h.4c.4-.2.6-.3.7-.4.3-.1.4-.2.6-.3.1 0 .2-.1.4-.2l.4-.2-.1-.9-.4.3zM-93.9 500.6c-.1.2-.2.3-.3.4 0 0-.1.1-.2.1s-.2 0-.3-.1c-.1-.1-.1-.3-.2-.6l-.8-3.5 1.4-.3-.3-1.3-1.4.3-.3-1.3c0-.1-.1-.3-.3-.4-.1-.1-.2 0-.4 0h-.2l-.1.2c-.4 1-.6 1.3-.7 1.5-.1.2-.3.4-.5.7-.1.1-.2.2-.2.3 0 .1-.1.2 0 .4 0 .1.1.2.2.3 0 0 .1.1.2.1h.1l.5-.1.8 3.7c.1.5.3.9.5 1.2.3.5.7.7 1.2.7h.4c.3-.1.6-.2.9-.4.3-.2.5-.6.7-1l.3-.6-.9-.5-.1.2zM-84.7 498.7c-.5.1-.6.1-.6.1s-.1-.1-.2-.4l-2.7-7.9c-.1-.2-.1-.2-.1-.3-.1-.2-.3-.2-.5-.2h-.2c-.7.5-1.4 1-1.9 1.4l-.3.2.3 1 .4-.3c.1-.1.2-.1.2-.1s.1 0 .1-.1c.2-.1.2 0 .2 0s.1.1.2.4l2.2 6.4c.1.4.1.5.1.5s-.1.2-.6.4l-.3.2.3.9 3.9-1.4-.3-.9-.2.1zM-78.3 494l-1 .1v.3c-.1.5-.2.9-.4 1.2-.2.3-.4.5-.8.7-.4.2-.9.2-1.4-.1-.4-.2-.8-.6-1.2-1.3l4-1.7-.2-.4c-.4-.9-.9-1.4-1.7-1.7-.7-.3-1.4-.2-2.1.1-.9.4-1.5 1.1-1.8 2-.3.9-.2 1.9.2 2.8.4.9.9 1.5 1.7 2 .4.3.9.4 1.4.4.4 0 .8-.1 1.2-.3.8-.3 1.4-.9 1.7-1.7.3-.7.4-1.4.4-2.1v-.3zm-5.2-.7c.1-.4.2-.7.6-.8.5-.2.7-.1.9.1.1.1.2.2.3.4l-1.8.8v-.5zM-63 487l-.3.2c-.4.2-.5.2-.6.2 0 0-.1 0-.3-.3l-1.6-2.4c-.4-.7-.8-1.1-1.2-1.4-.5-.3-1.2-.6-2.2.1-.4.3-.8.7-1 1.3-.1.2-.2.4-.2.7-.1-.1-.2-.1-.3-.1-.5-.1-1-.1-1.5.3-.3.2-.6.5-.9.9-.1.2-.2.4-.3.7l-.1-.1c-.1-.1-.1-.1-.1-.2-.2-.2-.4-.2-.5-.1-.1.1-.1.1-.5.7-.3.4-.4.6-.6.8l-.5.6.6.9.3-.5s0-.1.1-.1l.1-.1.1-.1.3.3 2 3c.2.2.2.4.2.5l-.4.4-.3.2.5.8 6.5-4.3 3.2-2.1-.5-.8zm-6.2 4l-.2.1-.3.2c-.3.2-.5.2-.5.2s-.1 0-.3-.3l-2-3.1c0-.2.1-.4.2-.6.1-.2.3-.4.4-.5.3-.2.5-.2.7 0 .1.1.4.3.8 1.1l1.1 1.6c.4.6.4.8.4.8.1.1 0 .2-.3.5zm3.2-2.1l-.2.2-.3.2c-.3.2-.5.2-.5.2-.1 0-.3-.2-.5-.5l-1.9-2.8c.1-.2.1-.4.2-.6.1-.3.3-.4.4-.6.4-.2.6-.2.7-.1.1.1.3.2.5.6l1.6 2.5c.2.3.2.4.2.4.2.1.2.2-.2.5zM-61.2 478.3c-1-.1-1.8.2-2.6.9s-1.2 1.5-1.2 2.5.3 1.9 1 2.6c.7.8 1.6 1.3 2.6 1.4h.4c.8 0 1.6-.3 2.2-.8.8-.7 1.2-1.5 1.2-2.6 0-1-.3-1.9-1-2.7-.8-.8-1.7-1.3-2.6-1.3zm1.7 5.5c-.4.3-.9.4-1.5.1-.7-.3-1.3-.7-1.8-1.3-.6-.7-.9-1.3-.8-1.8 0-.3.1-.5.4-.6.2-.2.5-.3.8-.3.2 0 .4.1.7.2.7.3 1.3.7 1.7 1.3.5.5.7 1 .8 1.5.1.4 0 .7-.3.9zM-51.4 475.8c-.1.1-.2.2-.3.2 0 0-.2 0-.4-.2l-2.4-2.2c-.7-.7-1.5-1-2.2-.9-.4.1-.7.3-1 .6-.3.3-.5.8-.6 1.2 0 .1-.1.3-.1.5l-.1-.1s-.1-.1-.2-.1c-.2-.1-.4-.1-.5.1l-.4.7c-.3.7-.5 1.1-.6 1.3l-.1.3.7.7.4-.5s0-.1.1-.1c.1-.1.1-.1.2-.1 0 0 .1 0 .4.3l2.6 2.4c.3.3.3.4.3.4s0 .2-.2.4l-.2.3.7.7 2.5-2.7 2.6-2.7-.7-.7-.5.2zm-2.1 2.2l-.1.2-.3.3c-.2.2-.4.3-.4.3s-.1 0-.3-.2l-2.7-2.6v-.6c0-.3.1-.5.3-.6.3-.3.4-.2.5-.2.2.1.5.2.7.4l2.1 2.1c.4.4.4.5.4.5s0 .1-.2.4zM-46.8 468.9c0 .1 0 .1 0 0-.1.1-.1.2-.1.2l-.2.2s-.2-.1-.3-.2l-4.5-3.5c-.2-.2-.4-.3-.6-.5l-1.2-1-.3-.2-.4.2v.1c-.1.2-.1.3-.1.4-.1.2-.1.3-.2.5s-.2.4-.2.6l-.4.8.8.6.4-.6s0-.1.1-.1l.1-.1s.1.1.3.2l1.1.9c-.3.2-.6.4-.9.7-.6.8-.8 1.7-.5 2.7.2 1 .8 1.8 1.6 2.5.7.5 1.5.8 2.3.8h.1c.9 0 1.6-.4 2.2-1.1.3-.4.5-.9.6-1.3v-.1l.1.1h.5l.4-1.4.4-1.3-.8-.6-.3.5zm-1.8 2.8c-.3.4-.7.6-1.3.5-.6-.1-1.2-.3-1.7-.7-.5-.4-.9-.9-1.1-1.4-.2-.4-.1-.8.2-1.2.1-.2.4-.3.7-.4h.2c.2 0 .5.1.8.4l2.4 1.8s.1.1.1.4c-.1.2-.1.4-.3.6zM-43.3 462l-.2-.3-.8.6.1.3c.2.4.3.9.4 1.2 0 .3-.1.7-.3 1-.3.4-.7.7-1.2.7-.5.1-1.1-.1-1.7-.4l2.4-3.7-.3-.2c-.8-.5-1.6-.7-2.3-.5-.7.2-1.3.6-1.7 1.3-.5.9-.7 1.8-.3 2.7.3.9.9 1.7 1.8 2.2.7.5 1.5.7 2.3.7h.2c.9-.1 1.7-.5 2.2-1.4.5-.7.6-1.5.4-2.3-.3-.7-.6-1.3-1-1.9zm-4.7 2.4c-.1-.1-.2-.2-.2-.3-.2-.4-.2-.7 0-1 .2-.3.5-.5.8-.5.1 0 .2 0 .5.1l-1.1 1.7zM-36.8 454.6l-4.4-4.4c-.1-.1-.2-.2-.2-.3v-.2l.1-.3-.9-.4-1.1 2.5.9.4.3-.5v-.1l.1.1c.1.1.1.1.2.1l2 2H-43s-.1 0 0 0v-.1s0-.1.1-.4l.2-.4-.9-.4-1.5 3.4.9.4.2-.3.2-.2s.2-.1.6-.1l5.2-.1h.2s.2.1.8.8c.5.5.5.7.5.7s-.1.1-.2.3c-.2.2-.3.4-.4.5-.1.3-.1.6-.1.8.1.3.3.5.6.6.2.1.3.1.5.1s.4-.1.6-.2c.3-.2.5-.4.6-.7.3-.6.2-1.2-.1-1.8-.5-.4-1-1.1-1.8-1.8zM-31.6 439.9c-.9-.2-1.6 0-2.1.8-.3.4-.6 1.2-.9 2.4-.1.2-.1.4-.2.6 0 0 0 .1-.1.1 0 0-.1-.1-.1-.2-.1-.2-.1-.3-.1-.3.1-.3.2-.5.2-.6.2-.8.1-1.6-.2-2.2-.4-.6-.9-1-1.5-1.2-.3-.1-.6-.1-.9-.1l.3-1-1.3-.4-.1.5c0 .1-.1.2-.1.4s-.1.3-.1.4c-.1.3-.2.6-.5.9-.3.4-.5.8-.6 1.2-.2.9-.1 1.6.3 2.3.4.6.9 1 1.5 1.2.5.1 1 .1 1.5 0 .3-.1.5-.2.8-.4.2.4.4.6.5.8.2.3.4.5.7.5.2.1.5.1.9-.2l.1.1c.2.4.4.7.5.9.2.2.4.4.6.4h.3c.4 0 .8-.2 1.2-.5.5-.4.8-1 1-1.8.2-.9.2-1.8 0-2.8-.2-.9-.8-1.6-1.6-1.8zm-4.4 2.3c0 .2-.2.4-.7.6-.4.1-.9.1-1.4 0-.3-.1-.5-.2-.6-.3-.2-.2-.3-.4-.2-.7.1-.2.2-.5.8-.6h.6c.3 0 .5 0 .8.1.4.1.7.3.8.5 0 .1 0 .2-.1.4zm4.7 1.3c-.1.5-.3.9-.6 1.3-.2.3-.4.3-.5.3-.2 0-.3-.2-.5-.4-.1-.1-.2-.2-.2-.3 0-.1.1-.2.1-.3.1-.2.2-.4.2-.5.1-.2.1-.3.2-.5l.2-.5c.2-.8.4-1.1.4-1.2.1-.3.2-.2.3-.2.1 0 .3.1.5.7.1.3 0 .9-.1 1.6zM-32.2 432.6h-.4l-2.7-.5c-.7-.1-1.2-.1-1.6 0-.8.3-1.3.9-1.4 2-.1.9-.1 1.6.3 2.1.3.6.7.9 1.2.9.3 0 .5 0 .7-.1.2-.1.4-.3.5-.7 0-.2 0-.4-.1-.6-.1-.2-.3-.5-.8-.6h-.5s-.1 0-.1-.1c-.1-.2-.1-.3 0-.5.1-.5.3-.6.3-.6.1 0 .3-.1.8 0l.3.1c.2 1.2.5 2.1.7 2.5.4.9 1 1.4 1.8 1.5h.4c.4 0 .8-.1 1.1-.4.4-.3.7-.7.7-1.2.1-.4 0-.9-.2-1.5-.1-.2-.1-.3-.2-.5.1 0 .2-.1.3-.1.2-.1.5-.4.6-.9.1-.3 0-.7-.2-1.1-.1-.2-.2-.4-.4-.6l-.1-.1-1.3-.2.3.7c.1.2.1.3.1.3-.1.1 0 .1-.1.2.1 0 .1 0 0 0zm-.5 2.9c0 .1-.1.3-.2.4-.1.1-.3.2-.6.1-.4-.1-.7-.4-.9-1-.1-.2-.2-.5-.2-.8l1.6.3c.1 0 .2 0 .3.3 0 .2.1.4 0 .7zM-29.6 424.1c-.9-.1-1.5.3-1.9 1.2-.2.5-.3 1.3-.4 2.5 0 .2-.1.4-.1.6v.1l-.2-.2c-.1-.2-.2-.3-.2-.3.1-.3.1-.5.1-.6.1-.8-.1-1.6-.6-2.1-.5-.6-1-.9-1.7-.9-.3 0-.6 0-.9.1l.1-1-1.4-.1v1.3c0 .3-.1.7-.3 1-.2.4-.3.9-.4 1.2-.1.9.2 1.6.7 2.2.5.5 1.1.8 1.7.9.5 0 1-.1 1.4-.3.3-.1.5-.3.7-.6.3.3.5.6.6.7.3.2.5.4.8.4.2 0 .5 0 .8-.4l.1.1c.3.4.5.7.7.8.2.2.5.3.7.3h.1c.4 0 .9-.3 1.3-.7.4-.5.6-1.2.7-2 .1-.9-.1-1.8-.5-2.7-.3-.9-1-1.4-1.9-1.5zm-4.3 3.8c-.4.2-.8.3-1.3.3-.3 0-.5-.1-.7-.2-.3-.1-.4-.3-.4-.6 0-.2.1-.5.6-.7.4-.1.8-.2 1.2-.2h.2c.4 0 .7.1.8.3.1.1.1.2.1.4 0 .1-.1.4-.5.7zm5 1c-.1.3-.3.4-.5.4s-.4-.1-.6-.3l-.2-.2c0-.1 0-.2.1-.3.1-.2.1-.4.1-.5 0-.2 0-.3.1-.5l.1-.6c.1-.8.1-1.1.2-1.3.1-.3.2-.3.3-.3.1 0 .4 0 .6.6.2.4.3 1 .2 1.7-.2.5-.3 1-.4 1.3zM-31 415.8c0 .2 0 .3-.1.4 0 0-.1.1-.5.1l-3.2.1c-1 0-1.8.4-2.2 1-.2.3-.3.7-.3 1.1 0 .5.2.9.4 1.3.1.1.2.2.3.4H-36.9c-.2.1-.3.2-.3.5l.3.8c.2.7.4 1.1.5 1.3l.1.3h1l-.1-.5v-.1-.1-.2s.1-.1.5-.1l3.5-.1c.4 0 .5.1.5.1s.1.1.2.5l.1.3h.9l-.2-7.5h-1l-.1.4zm.1 3.2v.4c0 .3-.1.4-.1.5 0 0-.1.1-.4.1l-3.7.1-.4-.4c-.1-.2-.2-.4-.2-.6 0-.4.1-.4.2-.5.2-.1.5-.2.8-.2l3-.1h.1c.4 0 .5.1.5.1s.1.1.2.5v.1zM-34.3 413.1l-.5-4.4h-.4c-.9.1-1.6.5-2.1 1.1-.4.6-.6 1.3-.5 2.1.1 1 .6 1.8 1.5 2.3.7.4 1.4.6 2.2.6h.6c.9-.1 1.7-.5 2.4-1.1.7-.6 1-1.5.9-2.5-.1-.9-.5-1.6-1.1-2.1-.6-.5-1.3-.8-1.9-.9l-.4-.1-.2.9.3.1c.5.2.8.4 1.1.7.2.2.4.6.4 1 .1.5-.1.9-.4 1.3-.6.5-1.1.8-1.9 1zm-1.6-.1c-.4-.2-.6-.4-.6-.8-.1-.5.1-.7.3-.8.1-.1.2-.1.4-.2l.2 2c0-.1-.2-.1-.3-.2zM-84.2 426.4c-2.6-2.7-5.5-3.7-8.7-3-4.4 1-6.9 4.4-7.2 10.1-.2 2.9.2 6.6 1.3 10.9 1 4.4 2.3 7.9 3.8 10.4 2.3 3.9 5.2 5.9 8.6 5.9.7 0 1.5-.1 2.3-.3 4.4-1 6.8-4.4 7.2-9.9.2-2.9-.2-6.7-1.3-11-1.5-6-3.5-10.5-6-13.1z"/><path class="st0" d="M-45.8 405.5c-8.8-37.3-46.1-60.3-83.3-51.5-37.2 8.8-60.2 46.2-51.4 83.5 8.8 37.3 46.1 60.3 83.3 51.5 37.2-8.9 60.2-46.3 51.4-83.5zm-112.6-13.2c-.7-.2-1.4-.2-2.1 0l-.3-1.4 18.8-4.5.3 1.4c-1.9.6-3.1 1-3.6 1.3-.5.3-.7.8-.5 1.3.1.3.2.5.3.8.2.3.5.8 1.1 1.5l10.6 11.8h.1l3.7-11.3c.2-.7.5-1.5.7-2.5.3-1.5.4-2.6.3-3.2-.2-1-.8-1.6-1.6-1.7-.6-.1-1.8 0-3.6.3l-.3-1.4 12.3-2.9.3 1.4c-.9.4-1.5.7-2 1.1-.6.5-1 1.2-1.3 2l-6.6 20.1 2.5 10.4c.5 2.1 1.2 3.4 2.1 3.9.9.4 2.3.5 4.3 0l.3 1.4-19.5 4.6-.3-1.4c2.1-.5 3.4-1.2 3.9-2.1.5-.8.6-2.3.1-4.3l-2-8.3-14.7-16.3c-1.2-1.1-2.2-1.8-3.3-2zm39.6 69.8c.5 2.1 1.2 3.4 2.1 3.9.9.4 2.3.5 4.3 0l.3 1.4-19.5 4.6-.3-1.4c2.1-.5 3.4-1.2 3.9-2.1.5-.8.6-2.3.1-4.3l-2-8.3-14.7-16.3c-1-1.1-2-1.7-3.1-2-.7-.2-1.4-.2-2.1 0l-.3-1.4 18.8-4.5.3 1.4c-1.9.6-3.1 1-3.6 1.3-.5.3-.7.8-.5 1.4.1.3.2.5.3.8.2.3.5.8 1.1 1.5l10.6 11.8h.1l3.7-11.3c.2-.7.5-1.5.7-2.5.3-1.5.4-2.6.3-3.2-.2-1-.8-1.6-1.6-1.7-.6-.1-1.8 0-3.6.3l-.3-1.4 12.3-2.9.3 1.4c-.9.4-1.5.7-2 1.1-.6.5-1 1.2-1.3 2l-6.6 20.1 2.3 10.3zm-.4-60.6c-1.4-5.9-.7-11.2 2.1-15.9 2.8-4.7 7.2-7.8 13.1-9.2 5.7-1.3 10.8-.6 15.4 2.1 4.7 2.8 7.8 7.2 9.2 13.1 1.4 5.9.6 11.2-2.4 15.9-2.9 4.6-7.2 7.5-12.8 8.9-6 1.4-11.4.6-16.1-2.5-4.4-2.9-7.3-7.1-8.5-12.4zm48.2 51.6c-2.9 4.6-7.2 7.5-12.8 8.9-6 1.4-11.4.6-16.1-2.5-4.4-2.9-7.3-7.1-8.5-12.4-1.4-5.9-.7-11.2 2.1-15.9 2.8-4.7 7.2-7.8 13.1-9.2 5.7-1.3 10.8-.6 15.4 2.1 4.7 2.8 7.8 7.2 9.2 13.1 1.3 5.9.6 11.2-2.4 15.9z"/></svg>