<?xml version="1.0" encoding="utf-8"?>
<!-- Generator: Adobe Illustrator 16.0.0, SVG Export Plug-In . SVG Version: 6.00 Build 0)  -->
<!DOCTYPE svg PUBLIC "-//W3C//DTD SVG 1.1//EN" "http://www.w3.org/Graphics/SVG/1.1/DTD/svg11.dtd">
<svg version="1.1" id="Calque_1" xmlns="http://www.w3.org/2000/svg" xmlns:xlink="http://www.w3.org/1999/xlink" x="0px" y="0px"
	 width="1000px" height="500px" viewBox="0 0 1000 500" enable-background="new 0 0 1000 500" xml:space="preserve">
<path fill-rule="evenodd" clip-rule="evenodd" fill="#FFFFFF" d="M0,528.212c345.392,0.027,1036.186-15.941,1036.186-15.941V322
	c0,0-25.654-17.666-75.575-43.02C911.277,253.924,870.155,239.97,829.56,235c-40.312-4.961-80.104-0.944-120.291,10.102
	c-40.206,10.766-80.808,28.559-123.211,44.684c-42.246,17.864-86.218,38.397-132.471,60.073
	c-46.185,21.485-94.652,44.112-144.311,61.752c-49.691,17.651-100.406,29.801-151.811,30.932
	c-12.858,0.299-25.772-0.073-38.747-1.177c-12.975-1.105-26.012-2.942-39.123-5.579C53.375,430.515,26.863,422.052,0,409.822
	C0,273.93,0,138.037,0,2.143V528.212z"/>
</svg>
