<?xml version="1.0" encoding="utf-8"?>
<!-- Generator: Adobe Illustrator 16.0.0, SVG Export Plug-In . SVG Version: 6.00 Build 0)  -->
<!DOCTYPE svg PUBLIC "-//W3C//DTD SVG 1.1//EN" "http://www.w3.org/Graphics/SVG/1.1/DTD/svg11.dtd">
<svg version="1.1" id="Calque_1" xmlns="http://www.w3.org/2000/svg" xmlns:xlink="http://www.w3.org/1999/xlink" x="0px" y="0px"
	 width="1000px" height="500px" viewBox="0 0 1000 500" enable-background="new 0 0 1000 500" xml:space="preserve">
<path fill-rule="evenodd" clip-rule="evenodd" fill="#FFFFFF" d="M1029-4.147C686.079-4.174,343.405-5.237,0.327-4.605
	C-52.095,190.572,7.947,207.268-52,335.077c87.508,56.409,77.7,50.804,127.263,75.977c48.981,24.878,89.808,38.733,130.114,43.668
	c40.023,4.926,79.53,0.938,119.429-10.03c39.919-10.688,80.23-28.356,122.33-44.365c41.944-17.736,85.601-38.124,131.523-59.646
	c45.854-21.332,93.975-43.799,143.278-61.312c49.336-17.525,99.688-29.589,150.725-30.713c12.768-0.296,25.588,0.073,38.47,1.17
	c12.883,1.097,25.826,2.922,38.843,5.538c26.031,5.234,52.354,13.638,79.025,25.779C1029,416.068,1029-139.072,1029-4.147
	L1029-4.147z"/>
</svg>
